<svg version="1.2" baseProfile="tiny-ps" xmlns="http://www.w3.org/2000/svg" viewBox="0 0 900 200" width="900" height="200"><title>photopea_intro</title><style>tspan { white-space:pre }.s0 { fill: #18a497 } </style><path fill="#e6e6e6" aria-label="Photopea"  d="m278.8 152h-19v-103.88h36.96q11.95 0 20.19 3.56q8.24 3.56 12.47 10.98q4.3 7.42 4.3 19q0 11.72-4.23 19.37q-4.23 7.57-12.39 11.28q-8.16 3.64-19.89 3.64h-18.41v36.06zm0-88v36.06l16.18 0q9.72 0 14.55-4.38q4.9-4.38 4.9-13.73q0-9.35-4.97-13.65q-4.9-4.3-14.92-4.3l-15.73 0zm84.02 88h-18.41v-111.3h18.41v47.93l-4.16-3.26q4.68-3.26 10.17-6.01q5.49-2.75 13.14-2.75q9.8 0 15.96 4.38q6.16 4.3 9.05 12.02q2.89 7.64 2.89 17.73v41.26h-18.41v-39.92q0-10.39-3.34-15.36q-3.34-4.97-10.91-4.97q-6.46 0-10.61 3.04q-4.08 2.97-7.2 8.09l3.41-9.94v59.06zm97.23 1.48q-12.1 0-20.63-5.27q-8.54-5.27-13.06-14.02q-4.45-8.76-4.45-19.14q0-10.46 4.45-19.29q4.53-8.83 13.06-14.1q8.54-5.34 20.63-5.34q12.1 0 20.63 5.34q8.54 5.27 12.99 14.1q4.53 8.83 4.53 19.29q0 10.39-4.53 19.14q-4.45 8.76-12.99 14.02q-8.54 5.27-20.63 5.27zm0-15.14q9.28 0 14.25-6.46q5.05-6.53 5.05-16.84q0-10.46-5.05-16.99q-4.97-6.6-14.25-6.6q-9.2 0-14.25 6.6q-5.05 6.53-5.05 16.99q0 10.31 5.05 16.84q5.05 6.46 14.25 6.46zm87.43 15.14h-13.21q-6.98 0-11.36-2.82q-4.38-2.89-6.46-7.35q-2.08-4.45-2.08-9.28v-41.11h-10.54l1.63-15.14h8.91v-16.32l18.41-1.93v18.25h16.33v15.14h-16.33v33.54q0 5.64 0.67 8.16q0.67 2.45 3.04 3.12q2.37 0.59 7.57 0.59h5.05l-1.63 15.14zm47.35 0q-12.1 0-20.63-5.27q-8.54-5.27-13.06-14.02q-4.45-8.76-4.45-19.14q0-10.46 4.45-19.29q4.53-8.83 13.06-14.1q8.54-5.34 20.63-5.34q12.1 0 20.63 5.34q8.54 5.27 12.99 14.1q4.53 8.83 4.53 19.29q0 10.39-4.53 19.14q-4.45 8.76-12.99 14.02q-8.54 5.27-20.63 5.27zm0-15.14q9.28 0 14.25-6.46q5.05-6.53 5.05-16.84q0-10.46-5.05-16.99q-4.97-6.6-14.25-6.6q-9.2 0-14.25 6.6q-5.05 6.53-5.05 16.99q0 10.31 5.05 16.84q5.05 6.46 14.25 6.46zm69.32 49.57h-18.41v-110.11l14.84 0l3.56 12.32l-5.49-1.93q5.12-5.27 11.13-8.38q6.01-3.19 14.7-3.19q10.91 0 18.33 5.27q7.42 5.27 11.21 14.02q3.86 8.76 3.86 19.14q0 10.39-3.86 19.14q-3.79 8.76-11.21 14.02q-7.42 5.27-18.33 5.27q-8.68 0-14.1-2.37q-5.42-2.37-10.98-7.57l4.75-3.71v48.08zm17.52-49.57q8.24 0 12.77-6.46q4.6-6.53 4.6-16.84q0-10.39-4.6-16.84q-4.53-6.46-12.77-6.46q-6.38 0-10.46 2.97q-4.08 2.97-6.01 8.24q-1.93 5.19-1.93 12.09q0 6.9 1.93 12.17q1.93 5.19 6.01 8.16q4.08 2.97 10.46 2.97zm84.76 15.14q-13.43 0-22.41-5.34q-8.91-5.42-13.36-14.25q-4.45-8.9-4.45-19.44q0-10.17 4.16-18.77q4.23-8.61 12.32-13.8q8.09-5.27 19.74-5.27q10.69 0 17.81 4.38q7.12 4.38 10.69 11.72q3.56 7.27 3.56 16.1q0 2.45-0.3 4.97q-0.3 2.45-0.89 5.12h-47.95q1.04 6.9 4.3 11.2q3.34 4.23 8.09 6.23q4.82 2 10.32 2q6.46 0 12.02-1.63q5.57-1.71 10.24-4.45l0.89 15.58q-4.23 2.23-10.54 3.93q-6.31 1.71-14.25 1.71zm-20.63-47.04h29.98q0-3.34-1.26-6.68q-1.26-3.41-4.23-5.71q-2.89-2.3-7.87-2.3q-7.12 0-11.21 4.16q-4.08 4.16-5.42 10.54zm77.34 47.04q-5.94 0-10.84-2.6q-4.9-2.67-7.79-7.64q-2.89-4.97-2.89-12.02q0-6.31 2.89-10.76q2.97-4.53 7.72-7.49q4.82-3.04 10.39-4.75q5.64-1.78 11.06-2.6q5.49-0.82 9.65-0.96q-0.3-6.38-3.27-9.28q-2.97-2.89-10.09-2.89q-4.97 0-9.72 1.41q-4.68 1.34-10.61 4.23l-1.63-14.99q6.68-3.26 13.36-4.9q6.75-1.63 13.66-1.63q8.31 0 14.32 2.97q6.01 2.97 9.28 9.57q3.27 6.53 3.27 17.29v20.03q0 5.57 0.52 8.09q0.52 2.45 1.93 3.12q1.41 0.67 4.08 0.67h2.37l-1.63 15.14h-6.68q-4.16 0-7.42-1.04q-3.19-1.11-5.49-3.04q-2.3-1.93-3.71-4.53q-3.64 4.08-9.87 6.38q-6.16 2.23-12.84 2.23zm7.72-14.1q2.45 0 6.09-1.26q3.64-1.34 6.53-4.08v-16.92q-5.2 0.22-10.39 1.71q-5.2 1.48-8.68 4.38q-3.49 2.89-3.49 7.27q0 4.53 2.37 6.75q2.37 2.15 7.57 2.15z" /><path fill-rule="evenodd" class="s0" d="m60.96 12.33h117.22c15.62 0 28.25 12.62 28.25 28.24v117.19c0 15.62-12.63 28.24-28.25 28.24l-99.2 0l-0.33-74.83l-0.04 0c0-0.18 0-0.35 0-0.53c0-28.37 22.53-51.3 50.4-51.3c16.72 0 30.24 13.76 30.24 30.78c0 17.02-13.52 30.78-30.24 30.78c-5.57 0-10.08-4.59-10.08-10.26c0-5.67 4.51-10.26 10.08-10.26c5.57 0 10.08-4.59 10.08-10.26c0-5.67-4.51-10.26-10.08-10.26c-16.72 0-30.24 13.76-30.24 30.78c0 17.02 13.52 30.78 30.24 30.78c27.87 0 50.4-22.93 50.4-51.3c0-28.37-22.53-51.3-50.4-51.3c-39.02 0-70.57 32.1-70.57 71.82c0 0.21 0 0.41 0 0.62l-0.17 0l0.33 74.64c-14.52-1.19-25.9-13.32-25.9-28.14v-117.19c0-15.62 12.63-28.24 28.25-28.24z" /></svg>